<svg width="400" height="176" viewBox="0 0 400 176" fill="none" xmlns="http://www.w3.org/2000/svg">
<g filter="url(#filter0_d)">
<rect x="4" width="392" height="168" rx="18" fill="url(#paint0_linear)"/>
</g>
<path d="M74.0026 52.0187C56.2026 52.0187 42.0186 66.2027 42.0186 84C42.0186 101.797 56.2026 115.987 74 115.987C91.7973 115.987 105.984 101.803 105.984 84.0027C105.984 66.2027 91.8026 52.0187 74.0026 52.0187ZM48.9706 84.28L73.7253 109.035C60.096 109.035 48.9706 97.9093 48.9706 84.28V84.28ZM79.5653 108.477L49.528 78.44C52.0266 67.3147 62.0426 58.9707 74 58.9707C77.9536 58.9784 81.8503 59.9137 85.3767 61.7015C88.9031 63.4892 91.9608 66.0795 94.304 69.264L90.6906 72.32C88.8063 69.5623 86.2742 67.309 83.3164 65.7575C80.3585 64.2061 77.0653 63.4039 73.7253 63.4213C69.5017 63.3942 65.3763 64.6952 61.9324 67.1405C58.4884 69.5857 55.9001 73.0515 54.5333 77.048L80.6773 103.195C87.0773 100.968 92.08 95.408 93.472 88.7307H82.624V84.0027H99.0346C99.0346 95.9627 90.6906 105.976 79.5653 108.477V108.477Z" fill="#542C85"/>
<g clip-path="url(#clip0)">
<path d="M337.573 52.64L337.253 59.8667C337.249 59.9581 337.272 60.0487 337.318 60.1278C337.364 60.207 337.431 60.2714 337.512 60.3134C337.594 60.3554 337.685 60.3734 337.776 60.3651C337.867 60.3568 337.954 60.3227 338.027 60.2667L340.853 58.1333L343.253 60C343.324 60.0473 343.406 60.075 343.49 60.0804C343.575 60.0858 343.659 60.0686 343.735 60.0307C343.811 59.9927 343.876 59.9354 343.922 59.8644C343.969 59.7934 343.996 59.7114 344 59.6267L343.733 52.2667L347.28 52C347.718 51.9708 348.157 52.0319 348.57 52.1795C348.983 52.3272 349.362 52.5583 349.682 52.8584C350.002 53.1585 350.257 53.5212 350.431 53.9241C350.605 54.3269 350.694 54.7612 350.693 55.2V112.8C350.694 113.234 350.606 113.664 350.435 114.063C350.265 114.462 350.015 114.822 349.7 115.121C349.386 115.421 349.014 115.653 348.607 115.804C348.2 115.955 347.767 116.022 347.333 116L304.4 114.08C303.593 114.047 302.828 113.709 302.259 113.136C301.69 112.562 301.36 111.794 301.333 110.987L299.333 58.1867C299.308 57.7663 299.366 57.345 299.504 56.9471C299.642 56.5492 299.857 56.1824 300.137 55.8678C300.417 55.5531 300.756 55.2968 301.135 55.1136C301.515 54.9304 301.926 54.8238 302.347 54.8L337.547 52.5867L337.573 52.64V52.64ZM329.387 76.8C329.387 78.0533 337.813 77.44 338.96 76.5867C338.96 68.0533 334.373 63.5467 326 63.5467C317.6 63.5467 312.933 68.1333 312.933 74.9867C312.933 86.8533 328.933 87.0667 328.933 93.5467C328.933 95.4133 328.08 96.48 326.133 96.48C323.573 96.48 322.533 95.1733 322.667 90.72C322.667 89.76 312.933 89.44 312.613 90.72C311.893 101.467 318.56 104.587 326.213 104.587C333.653 104.587 339.467 100.613 339.467 93.44C339.467 80.72 323.2 81.0667 323.2 74.7733C323.2 72.1867 325.12 71.84 326.213 71.84C327.413 71.84 329.547 72.0267 329.387 76.8267V76.8Z" fill="#FF4785"/>
</g>
<path fill-rule="evenodd" clip-rule="evenodd" d="M142 77.6C144.133 69.067 149.467 64.8 158 64.8C170.8 64.8 172.4 74.4 178.8 76C183.067 77.067 186.8 75.467 190 71.2C187.867 79.733 182.533 84 174 84C161.2 84 159.6 74.4 153.2 72.8C148.933 71.733 145.2 73.333 142 77.6ZM126 96.8C128.133 88.267 133.467 84 142 84C154.8 84 156.4 93.6 162.8 95.2C167.067 96.267 170.8 94.667 174 90.4C171.867 98.933 166.533 103.2 158 103.2C145.2 103.2 143.6 93.6 137.2 92C132.933 90.933 129.2 92.533 126 96.8Z" fill="url(#paint1_linear)"/>
<g clip-path="url(#clip1)">
<path d="M217.135 108.265C217.135 108.265 217.015 108.11 216.795 107.825C216.565 107.545 216.23 107.13 215.805 106.605C215.38 106.115 214.86 105.515 214.265 104.83C213.66 104.155 212.95 103.39 212.165 102.58C211.38 101.765 210.51 100.9 209.585 99.985C208.66 99.07 207.675 98.115 206.64 97.135C204.58 95.175 202.34 93.11 200.07 91.065C197.8 89.02 195.48 87.01 193.3 85.115C192.205 84.17 191.15 83.255 190.145 82.385C189.645 81.96 189.165 81.545 188.695 81.14C188.25 80.765 187.855 80.445 187.505 80.185C186.795 79.655 186.3 79.375 185.88 79.195C185.465 79.015 185.06 78.9 184.735 78.835C184.41 78.765 184.15 78.74 183.98 78.73C183.805 78.715 183.715 78.715 183.715 78.715C180.255 78.705 177.455 75.89 177.465 72.43C177.475 68.97 180.29 66.17 183.75 66.18C183.97 66.18 184.185 66.19 184.395 66.215L184.98 66.28C184.98 66.28 185.275 66.31 185.82 66.405C186.365 66.5 187.155 66.66 188.13 66.965C189.11 67.27 190.26 67.715 191.515 68.41C192.77 69.095 194.035 70.03 195.115 70.98C195.655 71.455 196.17 71.94 196.645 72.405C197.1 72.85 197.565 73.31 198.05 73.78C199.005 74.715 200.01 75.695 201.05 76.715C202.09 77.74 203.165 78.8 204.26 79.875C205.35 80.96 206.46 82.065 207.565 83.17C209.78 85.385 211.98 87.635 214.015 89.78C215.035 90.85 216.01 91.9 216.925 92.905C217.84 93.915 218.7 94.87 219.5 95.75C221.105 97.525 222.445 99.005 223.38 100.045C223.84 100.54 224.2 100.93 224.45 101.2C224.7 101.46 224.835 101.6 224.835 101.6C226.785 103.63 226.725 106.855 224.695 108.81C222.665 110.765 219.44 110.7 217.485 108.67C217.36 108.54 217.24 108.405 217.135 108.265Z" fill="#FAC036"/>
<path d="M243.185 85.635C243.185 85.635 240.77 84.465 237.14 82.715C236.235 82.275 235.25 81.805 234.215 81.3C233.955 81.175 233.69 81.045 233.425 80.92C233.175 80.805 232.925 80.685 232.67 80.565C232.12 80.305 231.555 80.04 230.985 79.77C228.71 78.7 226.34 77.59 224 76.605C221.66 75.62 219.35 74.765 217.195 74.14C216.11 73.825 215.085 73.565 214.105 73.355C213.17 73.16 212.26 73.015 211.455 72.925C209.835 72.745 208.55 72.755 207.685 72.825C207.25 72.855 206.915 72.895 206.69 72.925C206.465 72.955 206.345 72.97 206.345 72.97L206.26 72.98C202.835 73.44 199.69 71.035 199.23 67.61C198.77 64.185 201.175 61.04 204.6 60.58C204.725 60.565 204.87 60.55 205 60.54C205 60.54 205.215 60.525 205.615 60.495C206.015 60.47 206.605 60.44 207.34 60.44C208.82 60.43 210.9 60.555 213.26 60.975C214.445 61.185 215.675 61.46 216.98 61.825C218.235 62.175 219.545 62.595 220.85 63.065C223.475 64.01 226.135 65.195 228.67 66.455C231.205 67.715 233.62 69.035 235.83 70.245C236.38 70.545 236.92 70.84 237.445 71.13C237.73 71.285 238.01 71.44 238.29 71.59C238.55 71.735 238.805 71.88 239.055 72.02C240.06 72.585 241.01 73.12 241.89 73.61C245.4 75.58 247.74 76.895 247.74 76.895C250.11 78.225 250.955 81.23 249.625 83.605C248.345 85.89 245.505 86.75 243.185 85.635Z" fill="#FAC036"/>
<path d="M242.975 74.95L248.61 77.945C252.86 80.205 255.285 82.165 253.895 84.79C252.51 87.395 249.575 86.53 245.265 84.24C243.625 83.37 242.65 82.85 239.63 81.245C239.63 81.245 239.46 79.78 240.56 77.705C241.71 75.54 242.975 74.95 242.975 74.95Z" fill="#D7598B"/>
<path d="M220.995 98.04L225.145 102.89C228.275 106.545 229.815 109.26 227.555 111.195C225.315 113.11 222.895 111.235 219.725 107.525C218.52 106.115 217.8 105.275 215.575 102.675C215.575 102.675 215.95 101.25 217.74 99.72C219.605 98.125 220.995 98.04 220.995 98.04Z" fill="#D7598B"/>
<path d="M264.285 74.83C264.305 74.505 264.22 74.185 264.12 73.88C263.86 73.085 263.475 72.31 262.855 71.75C262.235 71.19 261.355 70.87 260.545 71.085C259.36 71.395 258.725 72.655 258.23 73.775C257.715 74.945 257.175 76.13 256.355 77.11C255.535 78.09 255.55 79.28 254.275 79.38C255.335 79.92 255.55 79.505 256.61 80.045C256.99 80.24 257.375 80.435 257.79 80.55C259.255 80.96 260.235 80.62 261.31 79.535C262.38 78.455 263.335 77.23 263.965 75.845C264.11 75.525 264.26 75.185 264.285 74.83Z" fill="#2F2F2F"/>
<path d="M252.745 78.845C253.145 78.935 254.135 78.965 254.475 78.74C256.325 77.505 257.935 75.82 258.81 73.775C258.8 74.785 258.41 75.79 257.735 76.545C259 75.45 259.975 74.025 260.54 72.45C261.085 74.505 260.325 76.68 259.345 78.565C260.585 77.48 261.56 76.095 262.16 74.56C262.25 75.485 261.525 78.51 261.09 78.975C261.755 78.275 263.86 76.22 263.71 75.92C263.96 76.98 261.99 79.945 260 80.66C259.585 80.81 259.15 80.915 258.715 80.9C257.59 80.865 256.505 80.675 255.49 80.19C254.75 79.83 253.165 79.315 252.745 78.845Z" fill="#D7598B"/>
<path d="M274 51.495C275.245 52.2 276.135 52.985 275.985 53.25L264.685 73.285C264.535 73.55 263.405 73.195 262.16 72.495C260.915 71.795 260.03 71.01 260.18 70.745L271.48 50.71C271.625 50.44 272.755 50.79 274 51.495Z" fill="#F48120"/>
<path d="M245.69 77.585C245.69 77.585 245.825 77.62 246.055 77.7C246.17 77.735 246.305 77.79 246.465 77.85C246.62 77.905 246.8 77.99 246.975 78.055C247.35 78.21 247.795 78.425 248.24 78.675C248.69 78.93 249.155 79.22 249.605 79.54C250.06 79.85 250.49 80.19 250.89 80.515C251.285 80.845 251.64 81.17 251.935 81.46C252.525 82.04 252.865 82.48 252.865 82.48L252.535 82.86C252.535 82.86 252.06 82.585 251.385 82.145C250.715 81.705 249.82 81.12 248.93 80.535C248.48 80.245 248.04 79.955 247.625 79.68C247.21 79.4 246.835 79.135 246.5 78.895C246.32 78.76 246.18 78.66 246.05 78.55C245.92 78.445 245.805 78.355 245.72 78.275C245.54 78.12 245.44 78.02 245.44 78.02L245.69 77.585Z" fill="white"/>
<path d="M222.745 102.715C222.745 102.715 222.835 102.775 222.995 102.885C223.07 102.94 223.165 103.01 223.27 103.085C223.375 103.165 223.49 103.255 223.615 103.35C224.13 103.75 224.78 104.345 225.36 105C225.95 105.65 226.485 106.345 226.845 106.89C227.205 107.44 227.415 107.825 227.415 107.825L227.01 108.12C227.01 108.12 226.72 107.805 226.285 107.33C225.855 106.855 225.285 106.225 224.705 105.61C224.12 104.995 223.535 104.375 223.095 103.915C222.975 103.785 222.885 103.685 222.795 103.58C222.71 103.48 222.635 103.39 222.575 103.32C222.455 103.17 222.39 103.085 222.39 103.085L222.745 102.715Z" fill="white"/>
<path d="M230.22 103.515C230.22 103.515 230.1 103.36 229.88 103.075C229.65 102.795 229.315 102.38 228.89 101.855C228.465 101.365 227.945 100.765 227.35 100.08C226.745 99.405 226.035 98.64 225.25 97.83C224.465 97.015 223.595 96.15 222.67 95.235C221.745 94.32 220.76 93.365 219.725 92.385C217.665 90.425 215.425 88.36 213.155 86.315C210.885 84.27 208.565 82.26 206.385 80.365C205.29 79.42 204.235 78.505 203.23 77.635C202.73 77.21 202.25 76.795 201.78 76.39C201.335 76.015 200.94 75.695 200.59 75.435C199.88 74.905 199.385 74.625 198.965 74.445C198.55 74.265 198.145 74.15 197.82 74.085C197.495 74.015 197.235 73.99 197.065 73.98C196.89 73.965 196.8 73.965 196.8 73.965C193.34 73.955 190.54 71.14 190.55 67.68C190.56 64.22 193.375 61.42 196.835 61.43C197.055 61.43 197.27 61.44 197.48 61.465L198.065 61.53C198.065 61.53 198.36 61.56 198.905 61.655C199.45 61.75 200.24 61.91 201.215 62.215C202.195 62.52 203.345 62.965 204.6 63.66C205.855 64.345 207.12 65.28 208.2 66.23C208.74 66.705 209.255 67.19 209.73 67.655C210.185 68.1 210.65 68.56 211.135 69.03C212.09 69.965 213.095 70.945 214.135 71.965C215.175 72.99 216.25 74.05 217.345 75.125C218.435 76.21 219.545 77.315 220.65 78.42C222.865 80.635 225.065 82.885 227.1 85.03C228.12 86.1 229.095 87.15 230.01 88.155C230.925 89.165 231.785 90.12 232.585 91C234.19 92.775 235.53 94.255 236.465 95.295C236.925 95.79 237.285 96.18 237.535 96.45C237.785 96.71 237.92 96.85 237.92 96.85C239.87 98.88 239.81 102.105 237.78 104.06C235.75 106.015 232.525 105.95 230.57 103.92C230.445 103.79 230.325 103.655 230.22 103.515Z" fill="#FAC036"/>
<path d="M234.08 93.29L238.23 98.14C241.36 101.795 242.9 104.51 240.64 106.445C238.4 108.36 235.98 106.485 232.81 102.775C231.605 101.365 230.885 100.525 228.66 97.925C228.66 97.925 229.035 96.5 230.825 94.97C232.69 93.375 234.08 93.29 234.08 93.29Z" fill="#D7598B"/>
<path d="M235.825 97.965C235.825 97.965 235.915 98.025 236.075 98.135C236.15 98.19 236.245 98.26 236.35 98.335C236.455 98.415 236.57 98.505 236.695 98.6C237.21 99 237.86 99.595 238.44 100.25C239.03 100.9 239.565 101.595 239.925 102.14C240.285 102.69 240.495 103.075 240.495 103.075L240.09 103.37C240.09 103.37 239.8 103.055 239.365 102.58C238.935 102.105 238.365 101.475 237.785 100.86C237.2 100.245 236.615 99.625 236.175 99.165C236.055 99.035 235.965 98.935 235.875 98.83C235.79 98.73 235.715 98.64 235.655 98.57C235.535 98.42 235.47 98.335 235.47 98.335L235.825 97.965Z" fill="white"/>
</g>
<defs>
<filter id="filter0_d" x="0" y="0" width="400" height="176" filterUnits="userSpaceOnUse" color-interpolation-filters="sRGB">
<feFlood flood-opacity="0" result="BackgroundImageFix"/>
<feColorMatrix in="SourceAlpha" type="matrix" values="0 0 0 0 0 0 0 0 0 0 0 0 0 0 0 0 0 0 127 0"/>
<feOffset dy="4"/>
<feGaussianBlur stdDeviation="2"/>
<feColorMatrix type="matrix" values="0 0 0 0 0 0 0 0 0 0 0 0 0 0 0 0 0 0 0.25 0"/>
<feBlend mode="normal" in2="BackgroundImageFix" result="effect1_dropShadow"/>
<feBlend mode="normal" in="SourceGraphic" in2="effect1_dropShadow" result="shape"/>
</filter>
<linearGradient id="paint0_linear" x1="114.5" y1="74" x2="111" y2="302" gradientUnits="userSpaceOnUse">
<stop stop-color="#FEFDFF"/>
<stop offset="1" stop-color="#F7E7FF" stop-opacity="0"/>
</linearGradient>
<linearGradient id="paint1_linear" x1="126" y1="30.667" x2="190" y2="137.333" gradientUnits="userSpaceOnUse">
<stop stop-color="#2383AE"/>
<stop offset="1" stop-color="#6DD7B9"/>
</linearGradient>
<clipPath id="clip0">
<rect width="64" height="64" fill="white" transform="translate(294 52)"/>
</clipPath>
<clipPath id="clip1">
<rect width="64" height="64" fill="white" transform="translate(210 52)"/>
</clipPath>
</defs>
</svg>
